<?xml version="1.0" encoding="utf-8"?>
<!-- Generator: Adobe Illustrator 16.0.0, SVG Export Plug-In . SVG Version: 6.00 Build 0)  -->
<!DOCTYPE svg PUBLIC "-//W3C//DTD SVG 1.1//EN" "http://www.w3.org/Graphics/SVG/1.1/DTD/svg11.dtd">
<svg version="1.1" id="Layer_1" xmlns="http://www.w3.org/2000/svg" xmlns:xlink="http://www.w3.org/1999/xlink" x="0px" y="0px"
	 width="40px" height="40px" viewBox="0 0 40 40" enable-background="new 0 0 40 40" xml:space="preserve">
<g>
	<g transform="matrix( 1, 0, 0, 1, 0,0) ">
		<g>
			<g id="Layer0_43_FILL">
				<path fill="#F96611" d="M6.25,34.5C10.083,38.167,14.667,40,20,40c5.533,0,10.25-1.967,14.15-5.9C38.05,30.233,40,25.533,40,20
					c0-5.233-1.717-9.717-5.15-13.45c-0.1-0.1-0.199-0.2-0.3-0.3c-0.134-0.133-0.267-0.267-0.399-0.4
					c-0.066-0.066-0.134-0.133-0.2-0.199c-0.101-0.101-0.2-0.2-0.3-0.301C29.85,1.783,25.3,0,20,0C14.5,0,9.783,1.95,5.85,5.85
					C1.95,9.75,0,14.467,0,20c0,5.3,1.783,9.833,5.35,13.6c0.167,0.167,0.333,0.334,0.5,0.5C5.983,34.233,6.117,34.367,6.25,34.5z"
					/>
			</g>
		</g>
	</g>
	<g transform="matrix( 1, 0, 0, 1, 0,0) ">
		<g>
			<g id="Layer0_43_MEMBER_0_FILL">
				<path fill="#FFFFFF" d="M22.7,13.85h5.149c0-1.833-0.633-3.35-1.899-4.55C24.75,8.134,23.2,7.5,21.3,7.4V5h-2.4v2.4
					c-1.966,0.133-3.617,0.883-4.95,2.25c-1.367,1.366-2.05,2.982-2.05,4.85c0,3.9,2.333,6.333,7,7.3v6.05
					c-1.5-0.433-2.25-1.383-2.25-2.85h-5.2c0,2.4,0.7,4.267,2.1,5.6c1.367,1.233,3.15,1.851,5.35,1.851V35h2.4v-2.55
					c2.034-0.134,3.717-0.9,5.05-2.3c1.5-1.533,2.25-3.551,2.25-6.051c0-1.732-0.783-3.232-2.35-4.5
					c-1.367-1.166-3.017-1.967-4.95-2.399v-5.4C22.133,12.333,22.6,13.017,22.7,13.85 M17.1,14.55c0-1.233,0.6-2.1,1.8-2.6V16.6
					C17.7,16.434,17.1,15.75,17.1,14.55 M21.3,27.9V22.3c1.3,0.334,1.95,1.217,1.95,2.65C23.25,26.35,22.6,27.333,21.3,27.9z"/>
			</g>
		</g>
	</g>
</g>
</svg>
