<?xml version="1.0" encoding="utf-8"?>
<!-- Generator: Adobe Illustrator 16.2.0, SVG Export Plug-In . SVG Version: 6.00 Build 0)  -->
<!DOCTYPE svg PUBLIC "-//W3C//DTD SVG 1.1//EN" "http://www.w3.org/Graphics/SVG/1.1/DTD/svg11.dtd">
<svg version="1.1" id="Layer_1" xmlns="http://www.w3.org/2000/svg" xmlns:xlink="http://www.w3.org/1999/xlink" x="0px" y="0px"
	 width="40px" height="40px" viewBox="0 0 40 40" enable-background="new 0 0 40 40" xml:space="preserve">
<g>
	<g transform="matrix( 1, 0, 0, 1, 0,0) ">
		<g>
			<g id="Layer0_28_MEMBER_0_FILL">
				<path fill="#1A6DAB" d="M12.899,1.25c-2.6,0.967-4.949,2.5-7.05,4.6C1.95,9.75,0,14.467,0,20s1.95,10.232,5.85,14.1
					C9.783,38.033,14.5,40,20,40c5.533,0,10.25-1.967,14.148-5.9C38.05,30.232,40,25.533,40,20S38.05,9.75,34.148,5.85
					c-2.1-2.1-4.433-3.633-7-4.6C24.949,0.417,22.566,0,20,0C17.467,0,15.1,0.417,12.899,1.25z"/>
			</g>
		</g>
	</g>
</g>
<g>
	<path fill="#FFFFFF" d="M13.685,10.127l-0.131-1.31c-0.204,0.117-0.261,0.466-0.174,1.048c0.029,0.204,0.058,0.349,0.087,0.437
		C13.554,10.36,13.627,10.302,13.685,10.127z M22.894,6.156c-0.291-0.116-0.888-0.291-1.79-0.524
		c-0.406-0.116-0.74-0.174-1.003-0.174c-0.291-0.029-0.641-0.029-1.047,0c-0.757,0.058-1.644,0.188-2.662,0.393
		c-0.058,0-0.131,0.015-0.218,0.044c-0.087,0.058-0.146,0.086-0.174,0.086c-0.029,0.029-0.087,0.058-0.175,0.087
		s-0.204,0.044-0.349,0.044C14.602,6.2,14.02,6.345,13.729,6.549c-0.146,0.087-0.233,0.159-0.262,0.219
		c-0.029,0.086-0.029,0.203,0,0.349v0.13c0.087,0,0.189-0.028,0.306-0.086c0.116-0.029,0.218-0.087,0.306-0.175
		c0.408,0.291,0.698,0.829,0.873,1.615c0.029,0.087,0.088,0.349,0.175,0.785c0.028,0.263,0.072,0.437,0.131,0.524
		c0.029,0.262,0.131,0.568,0.306,0.917c0.058,0.116,0.101,0.159,0.131,0.13c0.087-0.028,0.115-0.188,0.087-0.479
		c0.087-0.292,0.014-0.742-0.218-1.353c-0.233-0.612-0.35-0.96-0.35-1.047c0.728-0.379,1.193-0.262,1.397,0.349
		c0.087,0.174,0.174,0.451,0.262,0.828c0.058,0.379,0.101,0.626,0.13,0.743c0.088,0.349,0.233,0.683,0.437,1.003
		c0.262,0.378,0.437,0.307,0.524-0.218c0.058-0.117,0.043-0.334-0.044-0.655c-0.116-0.349-0.204-0.596-0.262-0.742
		c-0.058-0.261-0.058-0.407,0-0.437c0.117-0.058,0.349,0.044,0.699,0.305c0.058,0.175,0.204,0.48,0.436,0.917
		c0.233,0.407,0.378,0.684,0.437,0.829c0.175-0.029,0.306-0.087,0.394-0.175c0.261-0.059,0.45-0.232,0.566-0.523
		c-0.116-0.146-0.275-0.292-0.479-0.438C19.65,9.749,19.665,9.69,19.752,9.69c0.029,0,0.161,0.029,0.394,0.088
		c0.494,0.086,0.785,0,0.873-0.263c0.116-0.086,0.262-0.232,0.437-0.437c0.174-0.232,0.29-0.378,0.349-0.437
		c0.116-0.116,0.233-0.159,0.349-0.13c0.146,0.058,0.306,0.203,0.48,0.437c0.175,0.232,0.566,0.684,1.179,1.353
		c0.523,0.553,0.873,1.018,1.047,1.397c0.233,0.291,0.277,0.422,0.131,0.392c-0.087-0.029-0.32-0.174-0.698-0.437
		c-0.379-0.261-0.639-0.406-0.785-0.436c-0.233-0.087-0.307,0.029-0.219,0.349c-0.262,0.786-0.276,1.761-0.044,2.923
		c0.204,1.223,0.626,2.357,1.266,3.404c0.699,1.194,1.528,2.095,2.487,2.706c1.106,0.727,2.271,1.004,3.492,0.829
		c0.233,0,0.378,0.016,0.436,0.044c0.061,0.059,0.043,0.131-0.043,0.219c-0.174,0.203-0.567,0.422-1.179,0.654
		c-0.756,0.261-1.556,0.422-2.399,0.479c-1.076,0.088-2.11,0.015-3.099-0.219c-0.408-0.145-0.8-0.363-1.179-0.654
		c-0.437-0.437-0.786-0.756-1.047-0.96c-0.35-0.35-0.583-0.698-0.698-1.047c-0.146-0.35-0.262-0.568-0.35-0.655
		c-0.059,0-0.116-0.043-0.174-0.131c-0.117-0.145-0.203-0.247-0.263-0.307c-0.466-0.261-0.8-0.45-1.003-0.566
		c-0.32-0.175-0.713-0.305-1.178-0.393c-0.175,0-0.364-0.029-0.567-0.087c-0.932-0.087-1.833,0.175-2.706,0.786
		c-0.932,0.67-1.586,1.63-1.964,2.881c-0.029-0.466-0.204-0.901-0.524-1.31c-0.291-0.349-0.465-0.554-0.524-0.611l-0.698-0.218
		c-0.494-0.116-0.844-0.203-1.047-0.262c-0.32-0.115-0.611-0.203-0.873-0.261c-0.436-0.087-0.742-0.146-0.917-0.175
		C8.231,18.579,8.1,18.534,8.1,18.506c0-0.029,0.015-0.059,0.043-0.087c0.058,0,0.101,0,0.131,0c0.175,0,0.814,0.131,1.92,0.393
		c1.077,0.261,1.746,0.437,2.008,0.523l0.524,0.218l1.222-0.829c0.698-0.495,1.324-0.83,1.876-1.004
		c0.524-0.145,1.135-0.203,1.833-0.174c0.757,0.058,1.338,0.174,1.746,0.349c0.407,0.146,0.843,0.408,1.309,0.786l0.306,0.262
		c0.029-0.028,0.058-0.059,0.087-0.088l0.132-2.05c0.058-0.495,0.087-0.858,0.087-1.092l0.132-0.959
		c0-0.436-0.015-0.858-0.044-1.266c-0.146-0.641-0.263-1.134-0.351-1.483c-0.175-0.553-0.393-1.019-0.653-1.397l-0.132,0.261
		c-0.087,0.175-0.203,0.307-0.349,0.393c-0.175,0.117-0.408,0.175-0.699,0.175c-0.35,0.147-0.641,0.162-0.874,0.045
		c-0.262,0.029-0.523,0.102-0.786,0.219c-0.174,0.086-0.32,0.145-0.436,0.174c-0.117,0.029-0.248,0.029-0.393,0
		c-0.175,0.059-0.349,0.087-0.523,0.087c-0.175-0.029-0.35-0.073-0.524-0.131c-0.844-0.088-1.557-0.291-2.139-0.611
		c-0.728-0.35-1.091-0.814-1.091-1.397V9.778c-0.029-0.32,0-0.8,0.088-1.44h0.043c0-0.175,0.029-0.321,0.087-0.437
		c0.059-0.437,0.131-0.743,0.218-0.917c0.059-0.175,0.16-0.32,0.306-0.437c0.233-0.175,0.597-0.32,1.091-0.437
		c0.495-0.175,0.902-0.263,1.222-0.263c0.117,0,0.218,0,0.306,0c0.087-0.028,0.131-0.057,0.131-0.086
		c0.029-0.059,0.291-0.131,0.786-0.219c0.524-0.086,1.223-0.174,2.095-0.262c0.437-0.058,0.756-0.087,0.96-0.087
		c0.232,0,0.436,0.015,0.61,0.044c0.175,0.058,0.422,0.117,0.741,0.175c0.292,0.059,0.597,0.131,0.918,0.218
		c0.319,0.117,0.566,0.204,0.741,0.263c0.32,0.145,0.583,0.334,0.786,0.566c0.174,0.204,0.64,0.873,1.396,2.008
		c0.582,0.931,0.931,1.455,1.047,1.571l1.353,1.485c0.554,0.582,1.266,1.353,2.139,2.313c0.263,0.262,0.509,0.524,0.742,0.786
		c0.233,0.261,0.379,0.437,0.437,0.523c0.116,0.175,0.305,0.423,0.567,0.743c0.465,0.552,0.888,1.208,1.266,1.964
		c0.35,0.727,0.567,1.397,0.655,2.007c0.028,0.262,0.087,0.524,0.173,0.785c0.088,0.263,0.176,0.465,0.263,0.611
		c0.202,0.319,0.306,0.626,0.306,0.916c0.029,0.263-0.044,0.583-0.218,0.961c-0.204,0.437-0.655,0.917-1.354,1.439
		c-0.726,0.495-1.484,0.889-2.27,1.179c-0.319,0.087-0.741,0.248-1.266,0.48c-0.523,0.204-0.989,0.422-1.396,0.655
		c-1.164,0.552-2.501,1.076-4.014,1.57c-1.513,0.466-2.91,0.771-4.19,0.916c-0.524,0.059-1.004,0.117-1.44,0.175h-0.48
		c-0.757,0.059-1.484,0.072-2.182,0.044c-0.175-0.029-1.004-0.146-2.488-0.349c-1.018-0.146-1.862-0.218-2.531-0.218h-0.044
		l-0.742,1.047c-0.349,0.495-0.698,0.873-1.047,1.135c-0.291,0.203-0.452,0.233-0.48,0.086L7.75,25.795
		c0-0.203,0.102-0.394,0.306-0.568c0.116-0.086,0.334-0.202,0.655-0.348c0.465-0.175,0.742-0.277,0.829-0.307
		c0.292-0.145,0.51-0.305,0.655-0.48c-1.047-0.552-1.658-0.959-1.833-1.221c-0.117-0.263,0.058-0.393,0.524-0.393
		c0.407-0.03,0.931,0.015,1.571,0.13c0.582,0.088,0.96,0.176,1.134,0.263c2.241,1.164,4.263,1.426,6.067,0.785
		c0.582-0.232,1.149-0.567,1.702-1.004c0.524-0.465,0.843-0.741,0.96-0.829c-0.146,0.611-0.539,1.135-1.179,1.571
		c-0.466,0.32-1.12,0.626-1.964,0.917c-0.902,0.261-1.527,0.45-1.876,0.567c-0.553,0.232-0.843,0.466-0.873,0.698
		c0.553,0.61,2.211,0.988,4.975,1.134c1.018,0.059,2.094,0.088,3.229,0.088c0.902,0,1.646-0.029,2.227-0.088
		c-0.088-0.523-0.321-0.945-0.698-1.266c-0.175-0.145-0.452-0.334-0.829-0.566c-0.61-0.379-1.033-0.655-1.265-0.829
		c0.289,0.145,0.813,0.262,1.57,0.349c0.756,0.116,1.6,0.174,2.53,0.174c2.299,0.059,4.132-0.115,5.499-0.522
		c0.407-0.088,0.757-0.263,1.047-0.524c0.205-0.174,0.422-0.378,0.654-0.61c0-0.089,0.045-0.146,0.132-0.175
		c0.146-0.088,0.189-0.292,0.131-0.611c-0.028-0.291-0.116-0.567-0.263-0.83c-0.086-0.115-0.173-0.305-0.26-0.566
		c-0.088-0.262-0.161-0.523-0.219-0.785c-0.117-0.67-0.349-1.368-0.698-2.095c-0.351-0.756-0.758-1.412-1.224-1.964
		c-0.261-0.291-0.449-0.539-0.566-0.743c-0.059-0.086-0.203-0.262-0.436-0.523c-0.233-0.263-0.496-0.524-0.786-0.786
		c-0.698-0.786-1.396-1.557-2.095-2.313c-0.728-0.815-1.179-1.295-1.353-1.441c-0.059-0.028-0.117-0.087-0.175-0.175
		c-0.028-0.028-0.044-0.057-0.044-0.086c0-0.029-0.263-0.437-0.786-1.222c-0.464-0.698-0.829-1.266-1.09-1.703
		C23.432,6.549,23.186,6.302,22.894,6.156z"/>
</g>
</svg>
